# xmcd
#
# Track frame offsets: 
#        150
#        22082
#        43692
#        63524
#        81526
#        98367
#        120672
#        142567
#        164919
#        182763
#        210841
#        238811
#        258894
#
# Disc length: 3744 seconds
#
# Revision: 0
# Processed by: cddbd v1.5PL3 Copyright (c) Steve Scherf et al.
# Submitted via: ExactAudioCopy v0.95a3
#
DISCID=ad0e9e0d
DTITLE=HEARTLAND - AS IT COME
DYEAR=2000
DGENRE=Rock
TTITLE0=Staring Down The Gun
TTITLE1=Eyes Open Wide
TTITLE2=She Blows Me Away
TTITLE3=Willing To Fly
TTITLE4=Love Resurrection
TTITLE5=Too Good To Be True
TTITLE6=Whatever Gets You Through The Night
TTITLE7=One Love
TTITLE8=Live To Fight Another Day
TTITLE9=The Runaway
TTITLE10=You Make Me Smile
TTITLE11=Conquer All
TTITLE12=Too Good To Be True (Guitar Version)
EXTD=
EXTT0=
EXTT1=
EXTT2=
EXTT3=
EXTT4=
EXTT5=
EXTT6=
EXTT7=
EXTT8=
EXTT9=
EXTT10=
EXTT11=
EXTT12=
PLAYORDER=
